<svg xmlns="http://www.w3.org/2000/svg" width="486.4" height="400" viewBox="0 0 486.4 400" font-family="ui-sans-serif,Arial,Helvetica,sans-serif">
<rect width="486.4" height="400" fill="#fbfaf7"/>
<text x="243.2" y="26" text-anchor="middle" font-size="17" font-weight="700" fill="#222">3 · CROSS ELEVATION (downhill face)</text>
<line x1="46" y1="300" x2="440.4" y2="300" stroke="#7a6a55" stroke-width="2.5"/><line x1="52.8" y1="300" x2="45.8" y2="291" stroke="#bbb" stroke-width="1"/><line x1="86.8" y1="300" x2="79.8" y2="291" stroke="#bbb" stroke-width="1"/><line x1="120.8" y1="300" x2="113.8" y2="291" stroke="#bbb" stroke-width="1"/><line x1="154.8" y1="300" x2="147.8" y2="291" stroke="#bbb" stroke-width="1"/><line x1="188.8" y1="300" x2="181.8" y2="291" stroke="#bbb" stroke-width="1"/><line x1="222.79999999999998" y1="300" x2="215.79999999999998" y2="291" stroke="#bbb" stroke-width="1"/><line x1="256.79999999999995" y1="300" x2="249.79999999999995" y2="291" stroke="#bbb" stroke-width="1"/><line x1="290.79999999999995" y1="300" x2="283.79999999999995" y2="291" stroke="#bbb" stroke-width="1"/><line x1="324.79999999999995" y1="300" x2="317.79999999999995" y2="291" stroke="#bbb" stroke-width="1"/><line x1="358.8" y1="300" x2="351.8" y2="291" stroke="#bbb" stroke-width="1"/><line x1="392.8" y1="300" x2="385.8" y2="291" stroke="#bbb" stroke-width="1"/><line x1="426.8" y1="300" x2="419.8" y2="291" stroke="#bbb" stroke-width="1"/><rect x="75" y="169.1" width="10" height="130.9" fill="#6b4a2a" stroke="#3d2a17" stroke-width="1.5" rx="0"/><rect x="71" y="442.79999999999995" width="18" height="142.79999999999998" fill="#9a9a9a" stroke="#777" stroke-width="1.2" rx="0"/><line x1="80" y1="169.1" x2="62" y2="230.3" stroke="#a9794a" stroke-width="2.5"/><line x1="80" y1="169.1" x2="98" y2="230.3" stroke="#a9794a" stroke-width="2.5"/><rect x="238.2" y="169.1" width="10" height="130.9" fill="#6b4a2a" stroke="#3d2a17" stroke-width="1.5" rx="0"/><rect x="234.2" y="442.79999999999995" width="18" height="142.79999999999998" fill="#9a9a9a" stroke="#777" stroke-width="1.2" rx="0"/><line x1="243.2" y1="169.1" x2="225.2" y2="230.3" stroke="#a9794a" stroke-width="2.5"/><line x1="243.2" y1="169.1" x2="261.2" y2="230.3" stroke="#a9794a" stroke-width="2.5"/><rect x="401.4" y="169.1" width="10" height="130.9" fill="#6b4a2a" stroke="#3d2a17" stroke-width="1.5" rx="0"/><rect x="397.4" y="442.79999999999995" width="18" height="142.79999999999998" fill="#9a9a9a" stroke="#777" stroke-width="1.2" rx="0"/><line x1="406.4" y1="169.1" x2="388.4" y2="230.3" stroke="#a9794a" stroke-width="2.5"/><line x1="406.4" y1="169.1" x2="424.4" y2="230.3" stroke="#a9794a" stroke-width="2.5"/><rect x="73" y="144.45000000000002" width="340.4" height="24.65" fill="#8a5a2b" stroke="#5a3a1b" stroke-width="1.2" rx="0"/><line x1="73" y1="156.775" x2="413.4" y2="156.775" stroke="#5a3a1b" stroke-width="0.8" stroke-dasharray="3 3"/><rect x="78" y="119.80000000000001" width="4" height="24.65" fill="#c89b6a" stroke="#a9794a" stroke-width="0.8" rx="0"/><rect x="132.4" y="119.80000000000001" width="4" height="24.65" fill="#c89b6a" stroke="#a9794a" stroke-width="0.8" rx="0"/><rect x="186.8" y="119.80000000000001" width="4" height="24.65" fill="#c89b6a" stroke="#a9794a" stroke-width="0.8" rx="0"/><rect x="241.2" y="119.80000000000001" width="4" height="24.65" fill="#c89b6a" stroke="#a9794a" stroke-width="0.8" rx="0"/><rect x="295.6" y="119.80000000000001" width="4" height="24.65" fill="#c89b6a" stroke="#a9794a" stroke-width="0.8" rx="0"/><rect x="350" y="119.80000000000001" width="4" height="24.65" fill="#c89b6a" stroke="#a9794a" stroke-width="0.8" rx="0"/><rect x="404.4" y="119.80000000000001" width="4" height="24.65" fill="#c89b6a" stroke="#a9794a" stroke-width="0.8" rx="0"/><rect x="80" y="116.4" width="326.4" height="5.4" fill="#d8b483" stroke="#a9794a" stroke-width="1" rx="0"/><rect x="213.45" y="46" width="59.5" height="262" fill="#9aa07e" stroke="#6f7758" stroke-width="1.2" rx="0"/><line x1="86.8" y1="116.4" x2="86.8" y2="-6" stroke="#6b4a2a" stroke-width="3"/><line x1="399.59999999999997" y1="116.4" x2="399.59999999999997" y2="-6" stroke="#6b4a2a" stroke-width="3"/><line x1="86.8" y1="-6" x2="399.59999999999997" y2="-6" stroke="#6b4a2a" stroke-width="3"/><line x1="93.6" y1="116.4" x2="93.6" y2="-6" stroke="#bbb" stroke-width="1.2"/><line x1="112.3" y1="116.4" x2="112.3" y2="-6" stroke="#bbb" stroke-width="1.2"/><line x1="131" y1="116.4" x2="131" y2="-6" stroke="#bbb" stroke-width="1.2"/><line x1="149.7" y1="116.4" x2="149.7" y2="-6" stroke="#bbb" stroke-width="1.2"/><line x1="168.39999999999998" y1="116.4" x2="168.39999999999998" y2="-6" stroke="#bbb" stroke-width="1.2"/><line x1="187.1" y1="116.4" x2="187.1" y2="-6" stroke="#bbb" stroke-width="1.2"/><line x1="205.8" y1="116.4" x2="205.8" y2="-6" stroke="#bbb" stroke-width="1.2"/><line x1="224.5" y1="116.4" x2="224.5" y2="-6" stroke="#bbb" stroke-width="1.2"/><line x1="243.2" y1="116.4" x2="243.2" y2="-6" stroke="#bbb" stroke-width="1.2"/><line x1="261.9" y1="116.4" x2="261.9" y2="-6" stroke="#bbb" stroke-width="1.2"/><line x1="280.6" y1="116.4" x2="280.6" y2="-6" stroke="#bbb" stroke-width="1.2"/><line x1="299.29999999999995" y1="116.4" x2="299.29999999999995" y2="-6" stroke="#bbb" stroke-width="1.2"/><line x1="318" y1="116.4" x2="318" y2="-6" stroke="#bbb" stroke-width="1.2"/><line x1="336.7" y1="116.4" x2="336.7" y2="-6" stroke="#bbb" stroke-width="1.2"/><line x1="355.4" y1="116.4" x2="355.4" y2="-6" stroke="#bbb" stroke-width="1.2"/><line x1="374.09999999999997" y1="116.4" x2="374.09999999999997" y2="-6" stroke="#bbb" stroke-width="1.2"/><line x1="392.8" y1="116.4" x2="392.8" y2="-6" stroke="#bbb" stroke-width="1.2"/><line x1="80" y1="365" x2="80" y2="375" stroke="#1d6fb8" stroke-width="1"/><line x1="243.2" y1="365" x2="243.2" y2="375" stroke="#1d6fb8" stroke-width="1"/><line x1="80" y1="370" x2="243.2" y2="370" stroke="#1d6fb8" stroke-width="1"/><text x="161.6" y="363" text-anchor="middle" font-size="11" font-weight="600" fill="#1d6fb8">48"</text><line x1="243.2" y1="365" x2="243.2" y2="375" stroke="#1d6fb8" stroke-width="1"/><line x1="406.4" y1="365" x2="406.4" y2="375" stroke="#1d6fb8" stroke-width="1"/><line x1="243.2" y1="370" x2="406.4" y2="370" stroke="#1d6fb8" stroke-width="1"/><text x="324.79999999999995" y="363" text-anchor="middle" font-size="11" font-weight="600" fill="#1d6fb8">48"</text><line x1="443.4" y1="116.4" x2="453.4" y2="116.4" stroke="#1d6fb8" stroke-width="1"/><line x1="443.4" y1="300" x2="453.4" y2="300" stroke="#1d6fb8" stroke-width="1"/><line x1="448.4" y1="116.4" x2="448.4" y2="300" stroke="#1d6fb8" stroke-width="1"/><text x="456.4" y="212.2" text-anchor="start" font-size="11" font-weight="600" fill="#1d6fb8">54"</text><line x1="45" y1="-6" x2="55" y2="-6" stroke="#1d6fb8" stroke-width="1"/><line x1="45" y1="116.4" x2="55" y2="116.4" stroke="#1d6fb8" stroke-width="1"/><line x1="50" y1="-6" x2="50" y2="116.4" stroke="#1d6fb8" stroke-width="1"/><text x="42" y="59.2" text-anchor="end" font-size="11" font-weight="600" fill="#1d6fb8">36" rail</text><text x="243.2" y="388" text-anchor="middle" font-size="11" font-weight="400" fill="#555">Downhill beam line: 3 posts @48", doubled 2×8 beam, knee braces.</text>
</svg>