<svg xmlns="http://www.w3.org/2000/svg" width="320" height="258" viewBox="0 0 320 258" font-family="ui-sans-serif,Arial,Helvetica,sans-serif">
<rect width="320" height="258" fill="#fbfaf7"/>
<text x="160" y="26" text-anchor="middle" font-size="17" font-weight="700" fill="#222">6 · RAILING DETAIL (kid safety)</text>
<rect x="70" y="198" width="180" height="8" fill="#d8b483" stroke="#a9794a" stroke-width="1" rx="0"/><rect x="72" y="90" width="14" height="108" fill="#6b4a2a" stroke="#3d2a17" stroke-width="1.2" rx="0"/><rect x="234" y="90" width="14" height="108" fill="#6b4a2a" stroke="#3d2a17" stroke-width="1.2" rx="0"/><rect x="70" y="90" width="180" height="6" fill="#a9794a" stroke="#5a3a1b" stroke-width="1" rx="0"/><rect x="70" y="186" width="180" height="6" fill="#a9794a" stroke="#5a3a1b" stroke-width="1" rx="0"/><rect x="86" y="96" width="4" height="90" fill="#c89b6a" stroke="#a9794a" stroke-width="0.8" rx="0"/><rect x="101" y="96" width="4" height="90" fill="#c89b6a" stroke="#a9794a" stroke-width="0.8" rx="0"/><rect x="116" y="96" width="4" height="90" fill="#c89b6a" stroke="#a9794a" stroke-width="0.8" rx="0"/><rect x="131" y="96" width="4" height="90" fill="#c89b6a" stroke="#a9794a" stroke-width="0.8" rx="0"/><rect x="146" y="96" width="4" height="90" fill="#c89b6a" stroke="#a9794a" stroke-width="0.8" rx="0"/><rect x="161" y="96" width="4" height="90" fill="#c89b6a" stroke="#a9794a" stroke-width="0.8" rx="0"/><rect x="176" y="96" width="4" height="90" fill="#c89b6a" stroke="#a9794a" stroke-width="0.8" rx="0"/><rect x="191" y="96" width="4" height="90" fill="#c89b6a" stroke="#a9794a" stroke-width="0.8" rx="0"/><rect x="206" y="96" width="4" height="90" fill="#c89b6a" stroke="#a9794a" stroke-width="0.8" rx="0"/><rect x="221" y="96" width="4" height="90" fill="#c89b6a" stroke="#a9794a" stroke-width="0.8" rx="0"/><line x1="37" y1="90" x2="47" y2="90" stroke="#1d6fb8" stroke-width="1"/><line x1="37" y1="198" x2="47" y2="198" stroke="#1d6fb8" stroke-width="1"/><line x1="42" y1="90" x2="42" y2="198" stroke="#1d6fb8" stroke-width="1"/><text x="34" y="148" text-anchor="end" font-size="11" font-weight="600" fill="#1d6fb8">36" min</text><line x1="88" y1="71" x2="88" y2="81" stroke="#1d6fb8" stroke-width="1"/><line x1="103" y1="71" x2="103" y2="81" stroke="#1d6fb8" stroke-width="1"/><line x1="88" y1="76" x2="103" y2="76" stroke="#1d6fb8" stroke-width="1"/><text x="95.5" y="69" text-anchor="middle" font-size="11" font-weight="600" fill="#1d6fb8">&lt;4" gap</text><text x="160" y="244" text-anchor="middle" font-size="11" font-weight="400" fill="#555">Vertical 2×2 balusters; no gap > 4". 4×4 posts bolted to rim joist.</text>
</svg>